<mxfile host="Electron" agent="Mozilla/5.0 (Windows NT 10.0; Win64; x64) AppleWebKit/537.36 (KHTML, like Gecko) draw.io/27.0.2 Chrome/134.0.6998.205 Electron/35.3.0 Safari/537.36" version="27.0.2">
  <diagram id="CZdY7CtGrKhzmkFzMvzD" name="Page-1">
    <mxGraphModel dx="1661" dy="973" grid="1" gridSize="10" guides="1" tooltips="1" connect="1" arrows="1" fold="1" page="1" pageScale="1" pageWidth="850" pageHeight="1100" math="0" shadow="0">
      <root>
        <mxCell id="0" />
        <mxCell id="1" parent="0" />
        <mxCell id="aWkfXzRHnM_OOqBGQMkk-1" style="edgeStyle=orthogonalEdgeStyle;rounded=0;orthogonalLoop=1;jettySize=auto;html=1;exitX=0.5;exitY=1;exitDx=0;exitDy=0;entryX=0.5;entryY=0;entryDx=0;entryDy=0;strokeWidth=2;strokeColor=#4D4D4D;endArrow=blockThin;endFill=1;" edge="1" parent="1" source="aWkfXzRHnM_OOqBGQMkk-2" target="aWkfXzRHnM_OOqBGQMkk-12">
          <mxGeometry relative="1" as="geometry">
            <Array as="points">
              <mxPoint x="415" y="890" />
              <mxPoint x="100" y="890" />
            </Array>
          </mxGeometry>
        </mxCell>
        <mxCell id="aWkfXzRHnM_OOqBGQMkk-2" value="" style="rounded=0;whiteSpace=wrap;html=1;strokeWidth=1;fillColor=#DFEAF2;" vertex="1" parent="1">
          <mxGeometry x="380" y="770" width="70" height="70" as="geometry" />
        </mxCell>
        <mxCell id="aWkfXzRHnM_OOqBGQMkk-3" style="edgeStyle=orthogonalEdgeStyle;rounded=0;orthogonalLoop=1;jettySize=auto;html=1;exitX=0.5;exitY=1;exitDx=0;exitDy=0;entryX=0.5;entryY=0;entryDx=0;entryDy=0;strokeWidth=2;strokeColor=#4D4D4D;endArrow=blockThin;endFill=1;" edge="1" parent="1" source="aWkfXzRHnM_OOqBGQMkk-4" target="aWkfXzRHnM_OOqBGQMkk-13">
          <mxGeometry relative="1" as="geometry">
            <Array as="points">
              <mxPoint x="485" y="900" />
              <mxPoint x="295" y="900" />
            </Array>
          </mxGeometry>
        </mxCell>
        <mxCell id="aWkfXzRHnM_OOqBGQMkk-4" value="" style="rounded=0;whiteSpace=wrap;html=1;strokeWidth=1;fillColor=#DFEAF2;" vertex="1" parent="1">
          <mxGeometry x="450" y="770" width="70" height="70" as="geometry" />
        </mxCell>
        <mxCell id="aWkfXzRHnM_OOqBGQMkk-5" style="edgeStyle=orthogonalEdgeStyle;rounded=0;orthogonalLoop=1;jettySize=auto;html=1;exitX=0.5;exitY=1;exitDx=0;exitDy=0;strokeWidth=2;strokeColor=#4D4D4D;endArrow=blockThin;endFill=1;" edge="1" parent="1" source="aWkfXzRHnM_OOqBGQMkk-6" target="aWkfXzRHnM_OOqBGQMkk-14">
          <mxGeometry relative="1" as="geometry">
            <Array as="points">
              <mxPoint x="555" y="910" />
              <mxPoint x="480" y="910" />
            </Array>
          </mxGeometry>
        </mxCell>
        <mxCell id="aWkfXzRHnM_OOqBGQMkk-6" value="" style="rounded=0;whiteSpace=wrap;html=1;strokeWidth=1;fillColor=#DFEAF2;" vertex="1" parent="1">
          <mxGeometry x="520" y="770" width="70" height="70" as="geometry" />
        </mxCell>
        <mxCell id="aWkfXzRHnM_OOqBGQMkk-7" style="edgeStyle=orthogonalEdgeStyle;rounded=0;orthogonalLoop=1;jettySize=auto;html=1;exitX=0.5;exitY=1;exitDx=0;exitDy=0;entryX=0.5;entryY=0;entryDx=0;entryDy=0;strokeWidth=2;strokeColor=#4D4D4D;endArrow=blockThin;endFill=1;" edge="1" parent="1" source="aWkfXzRHnM_OOqBGQMkk-8" target="aWkfXzRHnM_OOqBGQMkk-15">
          <mxGeometry relative="1" as="geometry">
            <Array as="points">
              <mxPoint x="625" y="910" />
              <mxPoint x="675" y="910" />
            </Array>
          </mxGeometry>
        </mxCell>
        <mxCell id="aWkfXzRHnM_OOqBGQMkk-8" value="" style="rounded=0;whiteSpace=wrap;html=1;strokeWidth=1;fillColor=#DFEAF2;" vertex="1" parent="1">
          <mxGeometry x="590" y="770" width="70" height="70" as="geometry" />
        </mxCell>
        <mxCell id="aWkfXzRHnM_OOqBGQMkk-9" style="edgeStyle=orthogonalEdgeStyle;rounded=0;orthogonalLoop=1;jettySize=auto;html=1;exitX=0.5;exitY=1;exitDx=0;exitDy=0;strokeWidth=2;strokeColor=#4D4D4D;endArrow=blockThin;endFill=1;" edge="1" parent="1" source="aWkfXzRHnM_OOqBGQMkk-10" target="aWkfXzRHnM_OOqBGQMkk-16">
          <mxGeometry relative="1" as="geometry">
            <Array as="points">
              <mxPoint x="695" y="900" />
              <mxPoint x="880" y="900" />
            </Array>
          </mxGeometry>
        </mxCell>
        <mxCell id="aWkfXzRHnM_OOqBGQMkk-10" value="" style="rounded=0;whiteSpace=wrap;html=1;strokeWidth=1;fillColor=#DFEAF2;" vertex="1" parent="1">
          <mxGeometry x="660" y="770" width="70" height="70" as="geometry" />
        </mxCell>
        <mxCell id="aWkfXzRHnM_OOqBGQMkk-11" value="" style="rounded=0;whiteSpace=wrap;html=1;strokeWidth=1;fillColor=#DFEAF2;" vertex="1" parent="1">
          <mxGeometry x="730" y="770" width="70" height="70" as="geometry" />
        </mxCell>
        <mxCell id="aWkfXzRHnM_OOqBGQMkk-12" value="&lt;font style=&quot;font-size: 30px; color: rgb(77, 77, 77);&quot; face=&quot;Cascadia Code&quot;&gt;&quot;Orlan&quot;&lt;/font&gt;" style="text;html=1;align=center;verticalAlign=middle;whiteSpace=wrap;rounded=0;fillColor=#ECF3E7;strokeColor=#ADC8A4;strokeWidth=2;" vertex="1" parent="1">
          <mxGeometry x="25" y="950" width="150" height="50" as="geometry" />
        </mxCell>
        <mxCell id="aWkfXzRHnM_OOqBGQMkk-13" value="&lt;span style=&quot;font-family: &amp;quot;Cascadia Code&amp;quot;; font-size: 30px;&quot;&gt;&lt;font style=&quot;color: rgb(77, 77, 77);&quot;&gt;&quot;Infinita&quot;&lt;/font&gt;&lt;/span&gt;" style="text;html=1;align=center;verticalAlign=middle;whiteSpace=wrap;rounded=0;fillColor=#ECF3E7;strokeColor=#ADC8A4;strokeWidth=2;container=0;" vertex="1" parent="1">
          <mxGeometry x="195" y="950" width="200" height="50" as="geometry" />
        </mxCell>
        <mxCell id="aWkfXzRHnM_OOqBGQMkk-14" value="&lt;span style=&quot;font-family: &amp;quot;Cascadia Code&amp;quot;; font-size: 30px;&quot;&gt;&lt;font style=&quot;color: rgb(77, 77, 77);&quot;&gt;&quot;Arto&quot;&lt;/font&gt;&lt;/span&gt;" style="text;html=1;align=center;verticalAlign=middle;whiteSpace=wrap;rounded=0;fillColor=#ECF3E7;strokeColor=#ADC8A4;strokeWidth=2;container=0;" vertex="1" parent="1">
          <mxGeometry x="415" y="951" width="130" height="50" as="geometry" />
        </mxCell>
        <mxCell id="aWkfXzRHnM_OOqBGQMkk-15" value="&lt;span style=&quot;font-family: &amp;quot;Cascadia Code&amp;quot;; font-size: 30px;&quot;&gt;&lt;font style=&quot;color: rgb(77, 77, 77);&quot;&gt;&quot;CristÃ³bal&quot;&lt;/font&gt;&lt;/span&gt;" style="text;html=1;align=center;verticalAlign=middle;whiteSpace=wrap;rounded=0;fillColor=#ECF3E7;strokeColor=#ADC8A4;strokeWidth=2;" vertex="1" parent="1">
          <mxGeometry x="565" y="951" width="220" height="50" as="geometry" />
        </mxCell>
        <mxCell id="aWkfXzRHnM_OOqBGQMkk-16" value="&lt;span style=&quot;font-family: &amp;quot;Cascadia Code&amp;quot;; font-size: 30px;&quot;&gt;&lt;font style=&quot;color: rgb(77, 77, 77);&quot;&gt;&quot;Ruffo&quot;&lt;/font&gt;&lt;/span&gt;" style="text;html=1;align=center;verticalAlign=middle;whiteSpace=wrap;rounded=0;fillColor=#ECF3E7;strokeColor=#ADC8A4;strokeWidth=2;container=0;" vertex="1" parent="1">
          <mxGeometry x="805" y="951" width="150" height="50" as="geometry" />
        </mxCell>
        <mxCell id="aWkfXzRHnM_OOqBGQMkk-17" value="&lt;span style=&quot;font-family: &amp;quot;Cascadia Code&amp;quot;; font-size: 30px;&quot;&gt;&lt;font style=&quot;color: rgb(77, 77, 77);&quot;&gt;&quot;Heroica&quot;&lt;/font&gt;&lt;/span&gt;" style="text;html=1;align=center;verticalAlign=middle;whiteSpace=wrap;rounded=0;fillColor=#ECF3E7;strokeColor=#ADC8A4;strokeWidth=2;container=0;" vertex="1" parent="1">
          <mxGeometry x="975" y="951" width="180" height="50" as="geometry" />
        </mxCell>
        <mxCell id="aWkfXzRHnM_OOqBGQMkk-18" style="edgeStyle=orthogonalEdgeStyle;rounded=0;orthogonalLoop=1;jettySize=auto;html=1;exitX=0.5;exitY=1;exitDx=0;exitDy=0;entryX=0.456;entryY=0.02;entryDx=0;entryDy=0;entryPerimeter=0;strokeWidth=2;strokeColor=#4D4D4D;endArrow=blockThin;endFill=1;" edge="1" parent="1" source="aWkfXzRHnM_OOqBGQMkk-11" target="aWkfXzRHnM_OOqBGQMkk-17">
          <mxGeometry relative="1" as="geometry">
            <Array as="points">
              <mxPoint x="765" y="890" />
              <mxPoint x="1057" y="890" />
            </Array>
          </mxGeometry>
        </mxCell>
        <mxCell id="aWkfXzRHnM_OOqBGQMkk-19" value="str" style="text;html=1;align=left;verticalAlign=middle;whiteSpace=wrap;rounded=0;fontSize=16;fontFamily=Cascadia Code;fontColor=#4D4D4D;" vertex="1" parent="1">
          <mxGeometry x="25" y="930" width="35" height="20" as="geometry" />
        </mxCell>
        <mxCell id="aWkfXzRHnM_OOqBGQMkk-20" value="str" style="text;html=1;align=left;verticalAlign=middle;whiteSpace=wrap;rounded=0;fontSize=16;fontFamily=Cascadia Code;fontColor=#4D4D4D;" vertex="1" parent="1">
          <mxGeometry x="195" y="930" width="35" height="20" as="geometry" />
        </mxCell>
        <mxCell id="aWkfXzRHnM_OOqBGQMkk-21" value="str" style="text;html=1;align=left;verticalAlign=middle;whiteSpace=wrap;rounded=0;fontSize=16;fontFamily=Cascadia Code;fontColor=#4D4D4D;" vertex="1" parent="1">
          <mxGeometry x="412.5" y="930" width="35" height="20" as="geometry" />
        </mxCell>
        <mxCell id="aWkfXzRHnM_OOqBGQMkk-22" value="str" style="text;html=1;align=left;verticalAlign=middle;whiteSpace=wrap;rounded=0;fontSize=16;fontFamily=Cascadia Code;fontColor=#4D4D4D;" vertex="1" parent="1">
          <mxGeometry x="565" y="930" width="35" height="20" as="geometry" />
        </mxCell>
        <mxCell id="aWkfXzRHnM_OOqBGQMkk-23" value="str" style="text;html=1;align=left;verticalAlign=middle;whiteSpace=wrap;rounded=0;fontSize=16;fontFamily=Cascadia Code;fontColor=#4D4D4D;" vertex="1" parent="1">
          <mxGeometry x="805" y="930" width="35" height="20" as="geometry" />
        </mxCell>
        <mxCell id="aWkfXzRHnM_OOqBGQMkk-24" value="str" style="text;html=1;align=left;verticalAlign=middle;whiteSpace=wrap;rounded=0;fontSize=16;fontFamily=Cascadia Code;fontColor=#4D4D4D;" vertex="1" parent="1">
          <mxGeometry x="975" y="931" width="35" height="20" as="geometry" />
        </mxCell>
        <mxCell id="aWkfXzRHnM_OOqBGQMkk-25" value="&lt;font face=&quot;Cascadia Code&quot; style=&quot;font-size: 30px; color: rgb(77, 77, 77);&quot;&gt;-6&lt;/font&gt;" style="rounded=0;whiteSpace=wrap;html=1;strokeWidth=1;fillColor=#DFEAF2;" vertex="1" parent="1">
          <mxGeometry x="380" y="730" width="70" height="40" as="geometry" />
        </mxCell>
        <mxCell id="aWkfXzRHnM_OOqBGQMkk-26" value="&lt;font face=&quot;Cascadia Code&quot; style=&quot;font-size: 30px; color: rgb(77, 77, 77);&quot;&gt;-5&lt;/font&gt;" style="rounded=0;whiteSpace=wrap;html=1;strokeWidth=1;fillColor=#DFEAF2;" vertex="1" parent="1">
          <mxGeometry x="450" y="730" width="70" height="40" as="geometry" />
        </mxCell>
        <mxCell id="aWkfXzRHnM_OOqBGQMkk-27" value="&lt;font face=&quot;Cascadia Code&quot; style=&quot;font-size: 30px; color: rgb(77, 77, 77);&quot;&gt;-4&lt;/font&gt;" style="rounded=0;whiteSpace=wrap;html=1;strokeWidth=1;fillColor=#DFEAF2;" vertex="1" parent="1">
          <mxGeometry x="520" y="730" width="70" height="40" as="geometry" />
        </mxCell>
        <mxCell id="aWkfXzRHnM_OOqBGQMkk-28" value="&lt;font face=&quot;Cascadia Code&quot; style=&quot;font-size: 30px; color: rgb(77, 77, 77);&quot;&gt;-3&lt;/font&gt;" style="rounded=0;whiteSpace=wrap;html=1;strokeWidth=1;fillColor=#DFEAF2;" vertex="1" parent="1">
          <mxGeometry x="590" y="730" width="70" height="40" as="geometry" />
        </mxCell>
        <mxCell id="aWkfXzRHnM_OOqBGQMkk-29" value="&lt;font face=&quot;Cascadia Code&quot; color=&quot;#4d4d4d&quot;&gt;&lt;span style=&quot;font-size: 30px;&quot;&gt;-2&lt;/span&gt;&lt;/font&gt;" style="rounded=0;whiteSpace=wrap;html=1;strokeWidth=1;fillColor=#DFEAF2;" vertex="1" parent="1">
          <mxGeometry x="660" y="730" width="70" height="40" as="geometry" />
        </mxCell>
        <mxCell id="aWkfXzRHnM_OOqBGQMkk-30" value="&lt;font face=&quot;Cascadia Code&quot; color=&quot;#4d4d4d&quot;&gt;&lt;span style=&quot;font-size: 30px;&quot;&gt;-1&lt;/span&gt;&lt;/font&gt;" style="rounded=0;whiteSpace=wrap;html=1;strokeWidth=1;fillColor=#DFEAF2;" vertex="1" parent="1">
          <mxGeometry x="730" y="730" width="70" height="40" as="geometry" />
        </mxCell>
        <mxCell id="aWkfXzRHnM_OOqBGQMkk-31" value="list" style="text;html=1;align=left;verticalAlign=middle;whiteSpace=wrap;rounded=0;fontSize=16;fontFamily=Cascadia Code;fontColor=#4D4D4D;container=0;" vertex="1" parent="1">
          <mxGeometry x="380" y="710" width="35" height="20" as="geometry" />
        </mxCell>
        <mxCell id="aWkfXzRHnM_OOqBGQMkk-33" value="&lt;font style=&quot;font-size: 24px; color: rgb(51, 51, 51);&quot;&gt;cafeterias&lt;/font&gt;" style="rounded=0;whiteSpace=wrap;html=1;fontFamily=Cascadia Code;fontSource=https%3A%2F%2Ffonts.googleapis.com%2Fcss%3Ffamily%3DCascadia%2BCode;strokeColor=#9673a6;strokeWidth=3;fillColor=#E9E3EC;dashed=1;" vertex="1" parent="1">
          <mxGeometry x="100" y="760" width="150" height="50" as="geometry" />
        </mxCell>
        <mxCell id="aWkfXzRHnM_OOqBGQMkk-34" style="edgeStyle=orthogonalEdgeStyle;rounded=0;orthogonalLoop=1;jettySize=auto;html=1;strokeWidth=2;endArrow=block;endFill=1;strokeColor=#4D4D4D;" edge="1" parent="1">
          <mxGeometry relative="1" as="geometry">
            <mxPoint x="370" y="784.5" as="targetPoint" />
            <mxPoint x="260" y="784.5" as="sourcePoint" />
          </mxGeometry>
        </mxCell>
        <mxCell id="aWkfXzRHnM_OOqBGQMkk-35" value="&lt;span style=&quot;font-size: 19px;&quot;&gt;inverted&lt;/span&gt;&lt;div&gt;&lt;span style=&quot;font-size: 19px;&quot;&gt;index&lt;/span&gt;&lt;/div&gt;" style="text;html=1;align=center;verticalAlign=middle;whiteSpace=wrap;rounded=0;fontSize=16;fontFamily=Cascadia Code;fontColor=#4D4D4D;container=0;" vertex="1" parent="1">
          <mxGeometry x="805" y="720" width="110" height="60" as="geometry" />
        </mxCell>
      </root>
    </mxGraphModel>
  </diagram>
</mxfile>
